# File created by Blade
# Date/Time:  Tue Jan 27 17:27:44 2015
#---------------------------------------------------------
:version 1.10
:name HOM
:units
  mass 1.0
  length 1.000000
  angle deg
:documentation
     Acclaim Skeleton File
:root
   axis xyz
   order TX TY TZ RX RY RZ
   position 0.000000 0.000000 0.000000
   orientation 0 0 0
:bonedata
   begin
      id 1
      name Spine_dum
      direction 0.000000 1.000000 0.000000
      length 7.539951
      axis 0.0 0.0 0.0 xyz
   end
   begin
      id 2
      name LeftUpLeg_dum
      direction 1.000000 0.000000 0.000000
      length 3.345476
      axis 0.0 0.0 0.0 xyz
   end
   begin
      id 3
      name RightUpLeg_dum
      direction -1.000000 0.000000 0.000000
      length 3.345476
      axis 0.0 0.0 0.0 xyz
   end
   begin
      id 4
      name Spine
      direction 0.000000 1.000000 0.000000
      length 0.000000
      axis 0.0 0.0 0.0 xyz
      dof rx ry rz
   end
   begin
      id 5
      name Spine_dum1
      direction 0.000000 1.000000 0.000000
      length 15.093809
      axis 0.0 0.0 0.0 xyz
   end
   begin
      id 6
      name Spine_dum2
      direction 0.000000 1.000000 0.000000
      length 9.738928
      axis 0.0 0.0 0.0 xyz
   end
   begin
      id 7
      name Spine_dum3
      direction 0.000000 1.000000 0.000000
      length 9.738928
      axis 0.0 0.0 0.0 xyz
   end
   begin
      id 8
      name Head
      direction 0.000000 1.000000 0.000000
      length 4.527550
      axis 0.0 0.0 0.0 xyz
      dof rx ry rz
   end
   begin
      id 9
      name LeftShoulder
      direction 1.000000 0.000000 0.000000
      length 7.084015
      axis 0.0 0.0 -90.0 xyz
      dof rx ry rz
   end
   begin
      id 10
      name LeftArm
      direction 1.000000 0.000000 0.000000
      length 10.259319
      axis 0.0 0.0 -90.0 xyz
      dof rx ry rz
   end
   begin
      id 11
      name LeftForeArm
      direction 1.000000 0.000000 0.000000
      length 9.896984
      axis 0.0 0.0 -90.0 xyz
      dof ry rz rx
   end
   begin
      id 12
      name LeftHand
      direction 0.000000 0.000000 0.000000
      length 0.000000
      axis 0.0 0.0 -90.0 xyz
      dof rx ry rz
   end
   begin
      id 13
      name LeftHand_dum1
      direction 0.000000 0.000000 0.000000
      length 0.000000
      axis 0.0 0.0 -90.0 xyz
   end
   begin
      id 14
      name LeftHand_dum2
      direction 1.000000 0.000000 0.000000
      length 3.937000
      axis 0.0 0.0 -90.0 xyz
   end
   begin
      id 15
      name LeftHandThumb1
      direction 0.000000 0.000000 1.000000
      length 3.937000
      axis 0.0 0.0 -90.0 xyz
      dof rx rz ry
   end
   begin
      id 16
      name RightShoulder
      direction -1.000000 0.000000 0.000000
      length 7.084015
      axis 0.0 0.0 90.0 xyz
      dof rx ry rz
   end
   begin
      id 17
      name RightArm
      direction -1.000000 0.000000 0.000000
      length 10.259319
      axis 0.0 0.0 90.0 xyz
      dof rx ry rz
   end
   begin
      id 18
      name RightForeArm
      direction -1.000000 0.000000 0.000000
      length 9.896984
      axis 0.0 0.0 90.0 xyz
      dof ry rz rx
   end
   begin
      id 19
      name RightHand
      direction 0.000000 0.000000 0.000000
      length 0.000000
      axis 0.0 0.0 90.0 xyz
      dof rx ry rz
   end
   begin
      id 20
      name RightHand_dum1
      direction 0.000000 0.000000 0.000000
      length 0.000000
      axis 0.0 0.0 90.0 xyz
   end
   begin
      id 21
      name RightHand_dum2
      direction -1.000000 0.000000 0.000000
      length 3.937000
      axis 0.0 0.0 90.0 xyz
   end
   begin
      id 22
      name RightHandThumb1
      direction 0.000000 0.000000 1.000000
      length 3.937000
      axis 0.0 0.0 90.0 xyz
      dof rx rz ry
   end
   begin
      id 23
      name LeftUpLeg
      direction 0.000000 -1.000000 0.000000
      length 19.114733
      axis 0.0 0.0 0.0 xyz
      dof rx ry rz
   end
   begin
      id 24
      name LeftLeg
      direction 0.000000 -1.000000 0.000000
      length 16.045604
      axis 0.0 0.0 0.0 xyz
      dof rx ry rz
   end
   begin
      id 25
      name LeftFoot
      direction 0.000000 -0.258819 0.965926
      length 5.543155
      axis 15.0 0.0 0.0 xyz
      dof rx ry rz
   end
   begin
      id 26
      name LeftToeBase
      direction 0.000000 0.000000 1.000000
      length 2.952750
      axis 0.0 0.0 0.0 xyz
      dof rx ry rz
   end
   begin
      id 27
      name RightUpLeg
      direction 0.000000 -1.000000 0.000000
      length 19.114733
      axis 0.0 0.0 0.0 xyz
      dof rx ry rz
   end
   begin
      id 28
      name RightLeg
      direction 0.000000 -1.000000 0.000000
      length 16.045604
      axis 0.0 0.0 0.0 xyz
      dof rx ry rz
   end
   begin
      id 29
      name RightFoot
      direction 0.000000 -0.258819 0.965926
      length 5.543155
      axis 15.0 0.0 0.0 xyz
      dof rx ry rz
   end
   begin
      id 30
      name RightToeBase
      direction 0.000000 0.000000 1.000000
      length 2.952750
      axis 0.0 0.0 0.0 xyz
      dof rx ry rz
   end
:hierarchy
   begin
      root Spine_dum LeftUpLeg_dum RightUpLeg_dum
      Spine_dum Spine
      LeftUpLeg_dum LeftUpLeg
      RightUpLeg_dum RightUpLeg
      Spine Spine_dum1 Spine_dum2 Spine_dum3
      Spine_dum1 Head
      Spine_dum2 LeftShoulder
      Spine_dum3 RightShoulder
      LeftShoulder LeftArm
      LeftArm LeftForeArm
      LeftForeArm LeftHand
      LeftHand LeftHand_dum1 LeftHand_dum2
      LeftHand_dum1 LeftHandThumb1
      RightShoulder RightArm
      RightArm RightForeArm
      RightForeArm RightHand
      RightHand RightHand_dum1 RightHand_dum2
      RightHand_dum1 RightHandThumb1
      LeftUpLeg LeftLeg
      LeftLeg LeftFoot
      LeftFoot LeftToeBase
      RightUpLeg RightLeg
      RightLeg RightFoot
      RightFoot RightToeBase
   end

# File created by Blade
# Date/Time:  Tue Jan 27 17:27:32 2015
# Frame Rate: 120.000 fps
#------------------------------------------------------
:FULLY-SPECIFIED
:DEGREES
715
root 3.784076 37.353417 -0.345508 5.461481 34.329944 -6.726140
Spine 3.457628 0.665331 2.002945
Head 8.435658 -9.230899 5.788227
LeftShoulder -1.660390 -11.585816 10.971250
LeftArm 2.161294 -16.871640 -54.667180
LeftForeArm 7.016662 -0.000000 106.727492
LeftHand -16.736651 -0.000000 38.355652
LeftHandThumb1 -26.253704 0.000000 33.147579
RightShoulder -7.880709 -20.868031 1.408098
RightArm 15.587106 -24.580310 58.971476
RightForeArm 186.045533 -0.000000 28.170500
RightHand 0.574071 0.000000 1.824328
RightHandThumb1 -24.326973 -0.000000 -32.862282
LeftUpLeg -12.772520 -7.402283 4.610296
LeftLeg 8.562587 -0.000000 -0.000000
LeftFoot -7.281394 -18.986697 -12.876175
LeftToeBase 15.300034 -0.000000 -0.000000
RightUpLeg -46.476585 6.316968 5.134605
RightLeg 8.619323 -0.000000 -0.000000
RightFoot -4.624655 8.441957 13.322009
RightToeBase -0.752819 -0.000000 0.000000
716
root 3.766416 37.355934 -0.343037 5.421715 34.490791 -6.804360
Spine 3.453015 0.623329 2.132381
Head 8.607201 -9.342284 5.766819
LeftShoulder -1.634988 -11.646555 10.863159
LeftArm 2.297782 -16.828715 -54.584163
LeftForeArm 7.006720 0.000000 106.610001
LeftHand -16.893049 -0.000000 38.344299
LeftHandThumb1 -26.253704 0.000000 33.147579
RightShoulder -7.935573 -20.858005 1.472200
RightArm 15.469363 -24.414579 58.982702
RightForeArm 185.971570 -0.000000 28.085246
RightHand 0.656840 0.000000 1.916021
RightHandThumb1 -24.326973 -0.000000 -32.862282
LeftUpLeg -12.856280 -7.620506 4.721891
LeftLeg 8.653281 -0.000000 -0.000000
LeftFoot -7.340395 -18.872631 -12.803254
LeftToeBase 15.126704 -0.000000 -0.000000
RightUpLeg -46.614017 6.181094 5.310174
RightLeg 8.660164 -0.000000 -0.000000
RightFoot -4.608050 8.164795 13.066242
RightToeBase -0.797993 -0.000000 0.000000
717
root 3.749861 37.356433 -0.339879 5.369377 34.648974 -6.854035
Spine 3.488113 0.582816 2.222164
Head 8.741772 -9.453230 5.809642
LeftShoulder -1.584989 -11.659179 10.688868
LeftArm 2.549780 -16.857219 -54.341277
LeftForeArm 6.906039 0.000000 106.485743
LeftHand -17.299808 -0.000000 38.531931
LeftHandThumb1 -26.253704 0.000000 33.147579
RightShoulder -7.988199 -20.873514 1.536296
RightArm 15.418407 -24.258183 58.985081
RightForeArm 185.956288 -0.000000 27.968574
RightHand 0.591352 -0.000000 1.856886
RightHandThumb1 -24.326973 -0.000000 -32.862282
LeftUpLeg -12.915524 -7.799398 4.796929
LeftLeg 8.751989 -0.000000 -0.000000
LeftFoot -7.401251 -18.796727 -12.651145
LeftToeBase 14.898695 -0.000000 -0.000000
RightUpLeg -46.710779 6.068074 5.429132
RightLeg 8.748299 -0.000000 -0.000000
RightFoot -4.623851 7.835237 12.863842
RightToeBase -0.774455 -0.000000 0.000000
718
root 3.734097 37.357376 -0.336067 5.323111 34.790676 -6.914077
Spine 3.502637 0.576906 2.321463
Head 8.860843 -9.534979 5.823062
LeftShoulder -1.563026 -11.664853 10.592314
LeftArm 2.745165 -16.871728 -54.304050
LeftForeArm 6.919523 -0.000000 106.355111
LeftHand -17.426254 -0.000000 38.499853
LeftHandThumb1 -26.253704 0.000000 33.147579
RightShoulder -8.049600 -20.894487 1.600117
RightArm 15.368051 -24.130652 58.971559
RightForeArm 185.930662 -0.000000 27.842597
RightHand 0.629234 -0.000000 2.045566
RightHandThumb1 -24.326973 -0.000000 -32.862282
LeftUpLeg -12.982958 -7.917476 4.865045
LeftLeg 8.855853 -0.000000 -0.000000
LeftFoot -7.462527 -18.728298 -12.348219
LeftToeBase 14.512731 -0.000000 -0.000000
RightUpLeg -46.791030 5.967043 5.554838
RightLeg 8.835400 -0.000000 -0.000000
RightFoot -4.630746 7.524312 12.720859
RightToeBase -0.764983 -0.000000 0.000000
719
root 3.719520 37.357621 -0.333265 5.289740 34.901042 -6.945361
Spine 3.527839 0.607017 2.373933
Head 8.935689 -9.621570 5.905499
LeftShoulder -1.645948 -11.599186 10.698667
LeftArm 2.861448 -16.851734 -54.692943
LeftForeArm 7.110777 -0.000000 106.240693
LeftHand -16.964939 0.000000 37.947857
LeftHandThumb1 -26.253704 0.000000 33.147579
RightShoulder -8.099714 -20.915111 1.674295
RightArm 15.330136 -23.994483 58.968522
RightForeArm 185.930840 0.000000 27.706087
RightHand 0.689171 0.000000 2.022560
RightHandThumb1 -24.326973 -0.000000 -32.862282
LeftUpLeg -13.041422 -8.011549 4.905579
LeftLeg 8.956309 -0.000000 -0.000000
LeftFoot -7.513183 -18.680428 -12.192244
LeftToeBase 14.266832 -0.000000 -0.000000
RightUpLeg -46.846981 5.908821 5.618418
RightLeg 8.921004 -0.000000 -0.000000
RightFoot -4.594719 7.307198 12.602575
RightToeBase -0.827806 -0.000000 0.000000
720
root 3.707669 37.357189 -0.329046 5.259417 34.978722 -6.957430
Spine 3.552076 0.668497 2.397595
Head 8.995784 -9.719825 6.005890
LeftShoulder -1.730654 -11.549019 10.879012
LeftArm 2.773371 -16.577266 -54.862812
LeftForeArm 7.047565 -0.000000 106.139660
LeftHand -16.325571 -0.000000 37.712082
LeftHandThumb1 -26.253704 0.000000 33.147579
RightShoulder -8.127777 -20.939351 1.742251
RightArm 15.286933 -23.916081 58.955289
RightForeArm 185.954313 -0.000000 27.586676
RightHand 0.685690 0.000000 1.962279
RightHandThumb1 -24.326973 -0.000000 -32.862282
LeftUpLeg -13.076135 -8.072974 4.920847
LeftLeg 9.063872 -0.000000 -0.000000
LeftFoot -7.609462 -18.635744 -11.818103
LeftToeBase 13.844415 -0.000000 -0.000000
RightUpLeg -46.870624 5.882697 5.644664
RightLeg 9.009651 -0.000000 -0.000000
RightFoot -4.570581 7.201154 12.440281
RightToeBase -0.846792 -0.000000 0.000000
721
root 3.693938 37.356150 -0.324175 5.233039 35.054775 -6.956793
Spine 3.579452 0.728186 2.394248
Head 9.055894 -9.783954 6.141174
LeftShoulder -1.754860 -11.497204 10.956193
LeftArm 2.909489 -16.535360 -54.950256
LeftForeArm 6.967884 -0.000000 105.973762
LeftHand -16.105615 -0.000000 37.800704
LeftHandThumb1 -26.253704 0.000000 33.147579
RightShoulder -8.049203 -20.899776 1.746754
RightArm 15.094148 -23.793814 59.089433
RightForeArm 185.967358 -0.000000 27.485687
RightHand 0.687427 -0.000000 2.073096
RightHandThumb1 -24.326973 -0.000000 -32.862282
LeftUpLeg -13.105612 -8.173999 4.946226
LeftLeg 9.140158 -0.000000 -0.000000
LeftFoot -7.642441 -18.563126 -12.160118
LeftToeBase 14.304725 -0.000000 -0.000000
RightUpLeg -46.870219 5.913123 5.601737
RightLeg 9.095512 -0.000000 -0.000000
RightFoot -4.503232 7.137913 12.310664
RightToeBase -1.269394 -0.000000 0.000000
722
root 3.684958 37.354178 -0.318905 5.167541 35.105759 -6.936936
Spine 3.680152 0.780492 2.371122
Head 9.050280 -9.853652 6.315216
LeftShoulder -1.778876 -11.479659 10.978606
LeftArm 3.029687 -16.553574 -54.989140
LeftForeArm 6.963948 -0.000000 105.855827
LeftHand -16.074543 -0.000000 37.818157
LeftHandThumb1 -26.253704 0.000000 33.147579
RightShoulder -8.019477 -20.887095 1.784154
RightArm 15.058844 -23.841191 59.043253
RightForeArm 186.128673 -0.000000 27.389357
RightHand 0.695355 -0.000000 2.189041
RightHandThumb1 -24.326973 -0.000000 -32.862282
LeftUpLeg -13.071492 -8.236068 4.919987
LeftLeg 9.224034 -0.000000 -0.000000
LeftFoot -7.725678 -18.497240 -11.674032
LeftToeBase 13.641255 -0.000000 -0.000000
RightUpLeg -46.794672 5.945608 5.544029
RightLeg 9.173657 -0.000000 -0.000000
RightFoot -4.465932 7.125627 12.192380
RightToeBase -0.702392 -0.000000 0.000000
723
root 3.677439 37.351920 -0.313148 5.106773 35.142032 -6.924007
Spine 3.759949 0.861602 2.362734
Head 9.047065 -9.896066 6.455455
LeftShoulder -1.742637 -11.484351 10.911631
LeftArm 3.118197 -16.674791 -54.997019
LeftForeArm 6.998503 -0.000000 105.783690
LeftHand -16.036151 -0.000000 37.599337
LeftHandThumb1 -26.253704 0.000000 33.147579
RightShoulder -8.024103 -20.920761 1.816856
RightArm 15.100476 -23.948555 58.948645
RightForeArm 186.299854 -0.000000 27.315326
RightHand 0.792229 -0.000000 2.309003
RightHandThumb1 -24.326973 -0.000000 -32.862282
LeftUpLeg -13.039351 -8.313953 4.918164
LeftLeg 9.284827 -0.000000 -0.000000
LeftFoot -7.778944 -18.414215 -11.849117
LeftToeBase 13.901253 -0.000000 -0.000000
RightUpLeg -46.711784 6.007496 5.472724
RightLeg 9.281970 -0.000000 -0.000000
RightFoot -4.430426 7.174293 12.233303
RightToeBase -0.436632 -0.000000 0.000000
724
root 3.672979 37.349660 -0.306502 5.015244 35.135555 -6.911474
Spine 3.872173 0.983829 2.355639
Head 9.052673 -9.949118 6.561169
LeftShoulder -1.722067 -11.482276 10.869347
LeftArm 3.197555 -16.652086 -54.882726
LeftForeArm 6.810228 -0.000000 105.677751
LeftHand -16.041121 -0.000000 37.913567
LeftHandThumb1 -26.253704 0.000000 33.147579
RightShoulder -7.970681 -20.907855 1.812066
RightArm 15.054049 -23.975361 58.946381
RightForeArm 186.341708 -0.000000 27.251678
RightHand 0.877292 -0.000000 2.340883
RightHandThumb1 -24.326973 -0.000000 -32.862282
LeftUpLeg -12.965298 -8.325329 4.894855
LeftLeg 9.353662 -0.000000 -0.000000
LeftFoot -7.842644 -18.372281 -11.783398
LeftToeBase 13.836850 -0.000000 -0.000000
RightUpLeg -46.579171 6.105856 5.392170
RightLeg 9.409580 -0.000000 -0.000000
RightFoot -4.279170 7.298616 12.265207
RightToeBase -1.168476 -0.000000 0.000000
725
root 3.669280 37.347322 -0.299531 4.935481 35.120948 -6.894328
Spine 3.961294 1.100263 2.340429
Head 9.064475 -9.996425 6.670541
LeftShoulder -1.737372 -11.453076 10.873816
LeftArm 3.274825 -16.675897 -54.898252
LeftForeArm 6.776303 -0.000000 105.566041
LeftHand -15.993632 -0.000000 37.936406
LeftHandThumb1 -26.253704 0.000000 33.147579
RightShoulder -7.909323 -20.889802 1.789619
RightArm 15.016358 -23.985414 58.980933
RightForeArm 186.320325 0.000000 27.160344
RightHand 0.900304 -0.000000 2.303058
RightHandThumb1 -24.326973 -0.000000 -32.862282
LeftUpLeg -12.893877 -8.384515 4.884735
LeftLeg 9.420820 -0.000000 -0.000000
LeftFoot -7.918661 -18.295931 -11.832867
LeftToeBase 13.908449 -0.000000 -0.000000
RightUpLeg -46.439484 6.194255 5.316021
RightLeg 9.557605 -0.000000 -0.000000
RightFoot -4.190128 7.399009 12.353392
RightToeBase -1.024632 -0.000000 0.000000
726
root 3.666603 37.343993 -0.291240 4.838539 35.085192 -6.860205
Spine 4.082210 1.223604 2.322803
Head 9.067644 -10.006686 6.727126
LeftShoulder -1.757432 -11.453895 10.899404
LeftArm 3.290205 -16.691590 -54.918312
LeftForeArm 6.711765 0.000000 105.438368
LeftHand -15.902023 -0.000000 37.824946
LeftHandThumb1 -26.253704 0.000000 33.147579
RightShoulder -7.711002 -20.695271 1.555894
RightArm 14.756172 -23.253906 59.714714
RightForeArm 185.356761 0.000000 26.675477
RightHand 0.596423 -0.000000 1.546623
RightHandThumb1 -24.326973 -0.000000 -32.862282
LeftUpLeg -12.791526 -8.377057 4.836506
LeftLeg 9.477988 -0.000000 -0.000000
LeftFoot -7.970441 -18.266709 -11.670571
LeftToeBase 13.684576 -0.000000 -0.000000
RightUpLeg -46.265441 6.330276 5.191596
RightLeg 9.729969 -0.000000 -0.000000
RightFoot -4.099500 7.536663 12.481955
RightToeBase -0.925467 -0.000000 0.000000
727
root 3.663467 37.342081 -0.286133 4.789095 35.043140 -6.849402
Spine 4.121513 1.349131 2.323350
Head 9.083484 -10.019773 6.793199
LeftShoulder -1.775236 -11.431204 10.936041
LeftArm 3.272643 -16.703832 -54.962905
LeftForeArm 6.612336 -0.000000 105.337062
LeftHand -15.763133 -0.000000 37.774546
LeftHandThumb1 -26.253704 0.000000 33.147579
RightShoulder -7.653550 -20.674435 1.512286
RightArm 14.757672 -23.239972 59.767926
RightForeArm 185.195867 -0.000000 26.551484
RightHand 0.644736 -0.000000 1.505014
RightHandThumb1 -24.326973 -0.000000 -32.862282
LeftUpLeg -12.753297 -8.405374 4.831648
LeftLeg 9.541158 -0.000000 -0.000000
LeftFoot -8.039843 -18.210761 -11.641826
LeftToeBase 13.642612 -0.000000 -0.000000
RightUpLeg -46.155480 6.448720 5.084735
RightLeg 9.951328 -0.000000 -0.000000
RightFoot -3.889568 7.606654 12.502224
RightToeBase -1.303773 -0.000000 0.000000
